HIERARCHY
ROOT Hips
{
  OFFSET -35.2597 29.1586 114.425
  CHANNELS 6 Xposition Yposition Zposition Zrotation Xrotation Yrotation
  JOINT LeftUpLeg
  {
    OFFSET 8.64259 1.95398 -2.38835
    CHANNELS 3 Zrotation Xrotation Yrotation
    JOINT LeftLeg
    {
      OFFSET 43.7702 0 0
      CHANNELS 3 Zrotation Xrotation Yrotation
      JOINT LeftFoot
      {
        OFFSET 40.6238 0 0
        CHANNELS 3 Zrotation Xrotation Yrotation
        JOINT LeftToeBase
        {
          OFFSET 12.7242 0 0
          CHANNELS 3 Zrotation Xrotation Yrotation
          End Site
          {
            OFFSET 0 0 0
          }
        }
      }
    }
  }
  JOINT RightUpLeg
  {
    OFFSET -8.2249 1.95398 -2.59336
    CHANNELS 3 Zrotation Xrotation Yrotation
    JOINT RightLeg
    {
      OFFSET 43.5653 0 0
      CHANNELS 3 Zrotation Xrotation Yrotation
      JOINT RightFoot
      {
        OFFSET 40.6238 0 0
        CHANNELS 3 Zrotation Xrotation Yrotation
        JOINT RightToeBase
        {
          OFFSET 12.7242 0 0
          CHANNELS 3 Zrotation Xrotation Yrotation
          End Site
          {
            OFFSET 0 0 0
          }
        }
      }
    }
  }
  JOINT Spine
  {
    OFFSET 0.165834 0.87714 6.61349
    CHANNELS 3 Zrotation Xrotation Yrotation
    JOINT Spine1
    {
      OFFSET 7.38963 1.71661e-005 0
      CHANNELS 3 Zrotation Xrotation Yrotation
      JOINT Spine2
      {
        OFFSET 11.9445 1.14441e-005 0
        CHANNELS 3 Zrotation Xrotation Yrotation
        JOINT Spine3
        {
          OFFSET 14.7254 4.19617e-005 0
          CHANNELS 3 Zrotation Xrotation Yrotation
          JOINT Spine4
          {
            OFFSET 10.9679 0 0
            CHANNELS 3 Zrotation Xrotation Yrotation
            JOINT RightShoulder
            {
              OFFSET 2.46616 -1.6653 3.69651
              CHANNELS 3 Zrotation Xrotation Yrotation
              JOINT RightArm
              {
                OFFSET 13.0012 0 0
                CHANNELS 3 Zrotation Xrotation Yrotation
                JOINT RightForeArm
                {
                  OFFSET 28.7848 1.62311e-005 0
                  CHANNELS 3 Zrotation Xrotation Yrotation
                  JOINT RightHand
                  {
                    OFFSET 26.5688 1.62095e-005 0
                    CHANNELS 3 Zrotation Xrotation Yrotation
                    End Site
                    {
                      OFFSET 0 0 0
                    }
                  }
                }
              }
            }
            JOINT LeftShoulder
            {
              OFFSET 2.38034 -1.29275 -3.7523
              CHANNELS 3 Zrotation Xrotation Yrotation
              JOINT LeftArm
              {
                OFFSET 16.3182 6.07031e-005 0
                CHANNELS 3 Zrotation Xrotation Yrotation
                JOINT LeftForeArm
                {
                  OFFSET 27.0901 0 0
                  CHANNELS 3 Zrotation Xrotation Yrotation
                  JOINT LeftHand
                  {
                    OFFSET 24.5451 1.51738e-005 0
                    CHANNELS 3 Zrotation Xrotation Yrotation
                    End Site
                    {
                      OFFSET 0 0 0
                    }
                  }
                }
              }
            }
            JOINT Neck
            {
              OFFSET 5.0226 -0.0266342 0
              CHANNELS 3 Zrotation Xrotation Yrotation
              JOINT Head
              {
                OFFSET 6.69364 2.86102e-005 0
                CHANNELS 3 Zrotation Xrotation Yrotation
                End Site
                {
                  OFFSET 0 0 0
                }
              }
            }
          }
        }
      }
    }
  }
}
MOTION
Frames:	15
Frame Time:	0.0416667
34.1249 101.461 -326.916 151.019 -67.6679 145.463 -166.432 -21.2031 97.2301 -5.10105 28.2666 -3.86587 70.0057 7.71595 0.671212 19.1563 -10.4226 8.58975 171.073 -27.3648 87.6327 -2.68092 3.04951 -1.10901 69.619 -4.67247 0.490347 24.0369 0.548651 4.33673 -2.44027 7.36393 -87.1469 12.2096 -3.50001 6.0839 0.528419 -3.2294 6.23137 -21.968 -5.16476 4.75442 -1.95535 -5.16475 4.75442 59.2016 -49.6754 -145.143 42.6663 11.4522 11.5373 -5.505 -44.8808 -5.57544 -24.2203 3.06332 -19.8062 -80.3023 -15.4004 90.6473 -49.4896 -9.45196 13.8667 3.40582 37.077 -4.47739 9.12849 -1.63027 -19.5714 -14.9576 7.06829 -29.9551 -5.07866 6.8462 15.7966 
33.416 101.486 -327.045 152.274 -69.8038 146.373 -168.221 -20.1171 95.2662 -5.19687 24.9359 -2.84084 69.895 7.61049 0.243033 20.4518 -9.71536 8.81581 170.676 -24.576 87.0231 -4.4439 0.854377 -0.836169 70.0518 -4.85064 0.0913109 24.0924 0.607484 4.09978 -2.35405 7.30579 -87.369 12.3228 -3.43047 5.64008 0.643516 -3.17933 5.78504 -21.8636 -4.96544 4.35113 -1.85096 -4.96544 4.35113 62.4098 -48.3859 -141.696 43.2117 11.0926 10.511 -5.3757 -43.0982 -5.49472 -24.087 2.99223 -19.5523 -79.9228 -18.0255 91.8663 -48.1546 -9.17013 11.7579 3.41029 37.1852 -4.48136 6.08427 -1.22335 -19.6019 -13.7356 6.86725 -27.2807 -4.5641 7.01151 14.4234 
32.5081 101.456 -327.431 154.534 -73.2426 148.479 -170.195 -17.3872 93.1311 -6.10359 20.8331 -1.91162 69.8856 7.70217 0.194758 22.1299 -9.04221 9.50297 170.645 -19.7477 86.7535 -7.80165 -2.35869 -0.557262 71 -5.21786 -0.926749 24.0003 0.588359 4.26119 -2.27451 7.20074 -87.7296 12.5296 -3.43787 4.93365 0.853271 -3.21769 5.07977 -21.6719 -4.76072 3.67386 -1.65922 -4.76072 3.67386 66.3888 -45.6162 -137.919 43.2796 10.6922 8.78397 -5.61966 -46.3784 -5.64965 -23.8644 3.10496 -20.2345 -79.0369 -22.7496 94.2631 -45.5996 -9.24441 9.6379 3.36525 36.2793 -4.43516 6.48676 -1.35068 -20.4851 -11.5421 6.99759 -21.8796 -4.62319 7.53471 11.6128 
31.4975 101.401 -327.982 162.291 -76.1485 156.157 -172.042 -15.3753 91.2981 -7.12925 15.7561 -0.681857 69.8795 7.80771 -0.38052 23.0299 -10.0018 12.0052 170.225 -15.6349 86.2364 -11.1227 -6.10394 -0.0209306 72.2156 -6.04802 -1.4062 23.2919 0.719677 4.67943 -2.02606 7.25334 -88.1764 12.4129 -3.15931 4.00313 0.739167 -2.98023 4.13809 -21.798 -4.21582 2.8691 -1.78537 -4.21584 2.8691 71.2047 -41.7175 -133.251 44.5566 9.77957 6.425 -5.65562 -46.8326 -5.67296 -23.7763 2.99572 -19.7683 -77.9937 -28.8719 96.6472 -41.7159 -9.60258 6.65154 3.29057 34.696 -4.3597 4.15196 -1.11474 -22.32 -7.74592 6.21953 -16.5756 -6.69332 6.9187 10.4618 
30.3709 100.964 -328.734 170.118 -77.1554 164.096 -173.596 -14.0888 90.2292 -8.62385 11.2949 0.750782 69.9328 9.50732 -0.651822 25.2474 -9.56184 13.8035 169.545 -12.2925 85.7871 -15.7359 -8.74278 0.937163 74.5031 -7.27737 -1.1038 22.7878 0.448248 6.00729 -1.84831 7.5547 -88.6544 11.8004 -3.04341 3.00545 0.129268 -2.90824 3.13641 -22.4207 -3.80571 1.9516 -2.40804 -3.80571 1.95158 75.7111 -37.2982 -128.826 46.2896 8.39046 3.08511 -5.58322 -45.9092 -5.62555 -24.4531 2.85249 -18.6755 -76.6901 -35.9618 99.085 -37.1593 -10.2613 3.12062 3.29179 34.6855 -4.36217 3.36769 -1.07636 -23.8456 -4.02939 6.21574 -9.88467 -6.65101 6.83998 7.99547 
29.5027 100.513 -329.776 171.622 -77.4503 167.039 -175.792 -5.178 90.7382 -23.6563 4.93887 2.33663 72.3623 10.0753 -4.90136 24.8158 -9.45994 13.0643 169.494 -10.5334 86.9728 -17.8925 -8.76851 2.26867 75.6407 -7.90165 -0.334196 21.9849 0.24845 7.40398 -1.6534 7.92512 -89.363 11.0441 -2.99599 1.55607 -0.62451 -2.92461 1.68647 -23.1857 -3.325 0.582903 -3.17304 -3.32499 0.582903 80.3465 -31.5645 -124.289 47.5351 7.02633 -0.297523 -5.63942 -46.6276 -5.66225 -22.7657 2.9618 -20.2729 -75.7444 -45.0255 100.435 -32.2475 -11.3102 -0.521881 3.20198 32.7175 -4.26931 6.31874 -1.56198 -23.5998 -0.522323 6.16429 -1.8999 -7.31954 6.11325 4.93959 
28.9112 101.308 -330.358 174.061 -78.2344 169.168 -179.399 5.43832 87.8374 -38.3514 -9.12064 5.35311 74.2434 2.82464 -29.0811 14.066 -17.1453 12.9585 169.751 -11.6515 87.3069 -13.3069 -7.89709 2.08882 73.2511 -7.63075 0.847953 22.8344 -0.609835 9.00503 -1.29107 8.18973 -89.8339 10.5012 -2.49533 0.55313 -1.1675 -2.46857 0.662483 -23.7219 -2.54612 -0.222883 -3.70923 -2.54614 -0.222895 83.4772 -26.7237 -121.308 48.6201 5.759 -3.21053 -5.4108 -43.5936 -5.5163 -21.6692 2.73862 -19.8719 -75.3837 -52.9705 100.69 -28.6379 -12.2229 -3.71026 3.15068 31.4976 -4.21706 6.84878 -1.51779 -21.9305 1.04679 5.84656 4.0601 -7.50234 5.07306 2.13944 
28.5906 101.014 -330.489 -171.661 -79.463 -177.916 -178.386 10.0708 84.7227 -34.3771 -2.2928 1.88136 71.0053 4.5917 -16.0298 19.5143 -12.1838 11.4773 170.078 -7.39564 86.1509 -18.74 -10.9274 1.02096 74.7213 -8.04182 0.163726 23.1366 -0.0694512 7.13511 -0.730528 8.341 -90.1871 10.1912 -1.54097 -0.240871 -1.47882 -1.55007 -0.17281 -24.0203 -1.39731 -0.692938 -4.00764 -1.39732 -0.69294 86.4772 -20.3024 -119.107 51.4452 3.64023 -5.99572 -5.19139 -40.3816 -5.3872 -22.1295 2.50547 -18.3899 -75.5598 -61.0159 100.188 -24.4782 -13.721 -4.34036 3.1231 30.8027 -4.18967 6.37839 -1.45005 -22.0875 1.61235 5.67869 11.7782 -7.09273 3.89107 -1.70279 
28.3905 100.535 -329.353 -164.417 -79.695 -171.125 -178.195 11.4675 81.8278 -21.9003 7.4366 -0.608742 66.22 5.68706 -0.64319 20.654 -9.13155 8.11211 170.402 -6.5545 86.0236 -21.0284 -11.0075 0.436709 76.5745 -8.79065 0.29469 24.3058 -1.38751 9.88349 0.156915 8.47025 -90.5007 9.93268 0.0853648 -1.00058 -1.73865 0.04125 -1.00337 -24.2711 0.382116 -0.928676 -4.25842 0.382126 -0.928676 90.7835 -16.9319 -111.088 54.3955 1.35279 -8.50277 -5.17527 -40.1344 -5.37822 -23.3112 2.78472 -19.0387 -80.743 -68.3886 93.5526 -18.0392 -16.1014 -4.45491 3.30138 34.8817 -4.37252 2.59343 -0.736288 -19.1793 0.901889 2.95446 16.6667 -6.26326 0.670854 -4.68395 
28.0651 100.164 -326.791 -159.695 -80.3892 -165.672 -179.421 12.0404 80.9835 -9.77088 8.28246 -1.09214 64.216 5.11747 0.020886 20.7359 -8.74485 7.58541 171.024 -8.16458 87.0305 -19.7859 -10.6875 0.194981 77.4032 -9.24164 0.55781 25.2309 -1.38539 8.91239 1.07199 8.43521 -90.3644 10.0124 1.97067 -0.885738 -1.65746 1.92978 -0.971649 -24.2041 2.14574 -0.252297 -4.19148 2.14574 -0.252308 92.391 -22.9168 -104.481 51.7847 1.89619 -10.5663 -5.1986 -40.4917 -5.39135 -22.4791 3.17196 -21.551 -85.6411 -65.7959 87.2096 -17.6644 -16.2294 -3.25263 3.48778 38.7018 -4.55929 1.77412 -0.557643 -17.0185 -1.03414 -0.587945 11.7507 -4.68958 -2.00143 -3.55543 
27.5713 99.4453 -323.361 -141.39 -79.9858 -146.356 -179.145 15.0177 81.588 -7.70675 7.36597 -1.84313 64.0652 4.62566 0.810355 19.8832 -9.06277 7.2313 171.948 -9.37353 87.9602 -20.1628 -12.195 -0.584873 79.0272 -10.42 0.959246 26.1181 -1.01258 6.78517 1.71361 8.40929 -90.1533 10.0666 3.3451 -0.582816 -1.60016 3.31621 -0.729645 -24.17 3.36542 0.450648 -4.15741 3.36543 0.450646 92.4147 -28.98 -102.276 48.9158 2.45828 -13.2686 -5.14261 -39.6241 -5.36006 -22.5929 3.1993 -21.6373 -87.217 -63.3402 84.8856 -17.4112 -16.3136 -2.33576 3.59412 40.5797 -4.66925 0.104993 -0.308597 -14.6236 -1.01231 -1.82745 8.33242 -3.63267 -2.8272 -3.15149 
27.108 98.2652 -317.753 -132.255 -79.7343 -135.886 -178.284 15.8717 81.8788 -10.6807 6.30724 -2.16452 63.1884 3.75884 0.0399352 19.8435 -8.69251 6.6183 171.812 -13.6265 88.4385 -17.5213 -13.4103 -0.461387 80.513 -12.0438 0.49278 29.2834 -1.4633 4.27926 1.58924 8.26746 -90.0494 10.3467 3.14361 -0.370741 -1.32058 3.12424 -0.508873 -23.8856 3.10955 0.592119 -3.87294 3.10955 0.592122 88.9806 -32.7445 -107.67 45.5969 3.88641 -14.3431 -5.08471 -38.7085 -5.32839 -19.4328 2.98424 -23.1375 -85.9286 -61.7364 86.3785 -17.8152 -16.1552 0.15501 3.42486 37.3418 -4.50108 0.649659 -0.377132 -15.193 -1.07563 -0.835574 6.6609 -2.73172 -1.66363 -2.08189 
26.5438 97.8735 -310.951 -117.94 -77.8907 -121.564 -177.395 19.4441 81.5195 -20.4915 4.2014 -2.30724 61.6006 0.682926 0.863471 12.4913 -12.2761 4.97535 171.209 -17.9863 87.1482 -13.9623 -15.6463 -1.42929 76.2597 -10.0948 1.13508 36.3963 -4.6229 6.92675 1.61237 8.02723 -89.9022 10.8246 3.25571 -0.109072 -0.842327 3.24774 -0.252413 -23.4086 3.13781 0.875429 -3.39596 3.13781 0.87543 87.4591 -33.157 -110.388 46.0693 3.76243 -13.917 -5.07235 -38.5087 -5.32178 -18.0423 2.35382 -20.5391 -85.0576 -61.8761 87.5487 -16.8154 -16.4532 1.78611 3.29904 34.8394 -4.36999 0.137881 -0.327774 -15.1666 0.781661 0.0795324 6.51593 -3.16439 -0.836166 -2.10765 
25.6736 98.2696 -303.558 -113.871 -74.9724 -118.664 -176.34 16.2976 80.4047 -24.9888 4.81214 -2.90219 63.8854 2.55334 2.12753 16.6221 -11.5321 7.76956 169.452 -16.174 83.7042 -24.1758 -21.5973 -2.89955 71.1221 -6.96695 -0.180301 38.8816 -5.35901 6.26245 1.6539 7.9577 -89.5979 10.9542 3.47884 0.469924 -0.712116 3.49615 0.316159 -23.279 3.17662 1.49472 -3.26633 3.17663 1.49472 86.7741 -33.747 -111.414 47.0032 4.32508 -10.4313 -5.37363 -43.0686 -5.49337 -23.345 3.26649 -21.4097 -84.9864 -60.6542 87.5135 -17.4694 -16.2635 0.68524 3.20821 32.9301 -4.27272 1.674 -0.390179 -12.7274 1.94403 0.213743 4.84476 -2.80229 -0.519619 -1.84399 
25.1927 98.6126 -296.903 -113.973 -73.9976 -119.462 -175.791 11.9272 79.4699 -26.7834 0.472715 -3.70081 69.7964 5.86382 -0.583172 13.1884 -10.885 3.65746 169.936 -5.68248 80.3177 -45.5952 -26.5195 -4.48432 60.079 0.229271 1.61332 28.6845 -1.92117 6.95847 1.39273 7.92568 -89.4444 11.0136 3.03 0.815958 -0.65399 3.06298 0.681685 -23.2099 2.64463 1.68938 -3.19729 2.64463 1.68937 87.4236 -33.5735 -110.282 46.7293 5.20858 -7.85218 -5.58679 -45.9571 -5.6286 -22.9997 3.18255 -21.278 -85.3274 -59.5391 86.9306 -18.2318 -16.0225 -4.34455 3.28099 34.4998 -4.3494 0.345868 -0.259898 -11.5319 2.49505 0.356485 3.18739 -3.14309 -0.135273 -1.44617 
